<?xml version="1.0" encoding="UTF-8"?>
<svg id="Logo_Image" data-name="Logo Image" xmlns="http://www.w3.org/2000/svg" viewBox="0 0 1707.05 350.24">
  <defs>
    <style>
      .cls-1 {
        fill: currentColor;
      }

      .cls-2 {
        fill: #f97415;
      }
    </style>
  </defs>
  <g id="New_Astro" data-name="New Astro">
    <g>
      <path class="cls-1" d="M414.44,210.31l43.8-93.6c1.2-2.4,2.25-3.15,5.1-3.15s3.9.75,5.1,3.15l44.1,93.6c1.2,2.85,0,5.85-3.9,5.85h-10.2c-3.15,0-5.25-1.35-6.6-4.2l-6.9-15.3h-43.8l-6.9,15.3c-1.2,2.85-3.45,4.2-6.6,4.2h-9.45c-3.75,0-5.25-2.7-3.75-5.85ZM477.29,179.26l-14.25-31.8-14.25,31.8h28.5Z"/>
      <path class="cls-1" d="M520.49,210.91v-91.05c0-3.3,1.95-5.25,5.25-5.25h9c3.3,0,5.25,1.95,5.25,5.25v78h38.85c3.6,0,5.25,2.1,4.2,5.7l-2.25,8.25c-.75,2.85-2.7,4.35-5.7,4.35h-49.35c-3.3,0-5.25-1.95-5.25-5.25Z"/>
      <path class="cls-1" d="M608.99,213.46l-35.25-92.55c-1.5-3.75.3-6.3,4.35-6.3h9.15c3.15,0,5.25,1.35,6.45,4.35l21,56.1,23.55-57.45c.9-2.1,2.1-3,4.5-3,2.55,0,3.75.75,4.5,2.7l23.25,58.05,21.3-56.4c1.2-3,3.3-4.35,6.45-4.35h8.4c4.05,0,5.85,2.55,4.35,6.3l-35.1,92.4c-1.05,2.55-2.25,3.3-4.65,3.3-2.1,0-3.45-.6-4.5-3.15l-24.15-60-24.6,60c-1.05,2.55-2.25,3.15-4.35,3.15-2.4,0-3.6-.75-4.65-3.15Z"/>
      <path class="cls-1" d="M698.84,210.31l43.8-93.6c1.2-2.4,2.25-3.15,5.1-3.15s3.9.75,5.1,3.15l44.1,93.6c1.2,2.85,0,5.85-3.9,5.85h-10.2c-3.15,0-5.25-1.35-6.6-4.2l-6.9-15.3h-43.8l-6.9,15.3c-1.2,2.85-3.45,4.2-6.6,4.2h-9.45c-3.75,0-5.25-2.7-3.75-5.85ZM761.69,179.26l-14.25-31.8-14.25,31.8h28.5Z"/>
      <path class="cls-1" d="M821.09,210.91v-31.5l-36.75-58.5c-2.25-3.6-.6-6.3,3.6-6.3h10.8c2.85,0,4.8,1.05,6.15,3.45l25.95,41.4,26.25-41.55c1.5-2.25,3.45-3.3,6.15-3.3h10.65c4.2,0,5.7,2.7,3.45,6.3l-36.9,58.5v31.5c0,3.3-1.95,5.25-5.25,5.25h-8.85c-3.3,0-5.25-1.95-5.25-5.25Z"/>
      <path class="cls-1" d="M884.09,211.81l-2.25-7.95c-1.05-3.75.75-5.85,4.5-5.85h15.15c10.2,0,16.8-4.05,16.8-10.8,0-7.2-6.6-10.2-16.5-15.9-10.95-6.3-21.15-13.05-21.15-28.5,0-17.55,14.85-28.2,34.5-28.2h12c3.3,0,5.25,1.95,5.25,5.25v7.65c0,3.3-1.95,5.25-5.25,5.25h-12c-9.45,0-15,3.6-15,9.6,0,7.05,7.05,9.75,15.15,14.4,11.7,6.6,22.5,14.25,22.5,30,0,19.05-16.2,29.4-36.3,29.4h-11.4c-3,0-5.1-1.35-6-4.35Z"/>
      <path class="cls-1" d="M982.19,210.91v-91.05c0-3.3,1.95-5.25,5.25-5.25h52.5c3.3,0,5.25,1.95,5.25,5.25v7.8c0,3.3-1.95,5.25-5.25,5.25h-38.4v25.95h36c3.3,0,5.25,1.95,5.25,5.25v7.65c0,3.3-1.95,5.25-5.25,5.25h-36v33.9c0,3.3-1.95,5.25-5.25,5.25h-8.85c-3.3,0-5.25-1.95-5.25-5.25Z"/>
      <path class="cls-1" d="M1056.59,174.46v-54.6c0-3.3,1.95-5.25,5.25-5.25h8.85c3.3,0,5.25,1.95,5.25,5.25v54.45c0,14.85,9.45,25.2,24.15,25.2s23.7-10.35,23.7-25.2v-54.45c0-3.3,1.95-5.25,5.25-5.25h8.85c3.3,0,5.25,1.95,5.25,5.25v54.6c0,25.65-16.95,43.5-43.05,43.5s-43.5-17.85-43.5-43.5Z"/>
      <path class="cls-1" d="M1158.44,210.91v-91.05c0-3.3,1.95-5.25,5.25-5.25h32.4c22.95,0,35.55,14.4,35.55,33.75,0,11.7-7.5,24.15-19.35,28.05l18.9,33.45c2.1,3.75.45,6.3-3.6,6.3h-10.2c-2.85,0-4.95-1.2-6.3-3.75l-23.55-42.6c-1.95-3.6-.3-6.3,3.75-6.3h4.05c10.8,0,16.8-6.75,16.8-15.15s-6.45-15.45-16.05-15.45h-18.15v78c0,3.3-1.95,5.25-5.25,5.25h-9c-3.3,0-5.25-1.95-5.25-5.25Z"/>
      <path class="cls-1" d="M1264.48,210.91v-78h-23.25c-3.3,0-5.25-1.95-5.25-5.25v-7.8c0-3.3,1.95-5.25,5.25-5.25h66c3.3,0,5.25,1.95,5.25,5.25v7.8c0,3.3-1.95,5.25-5.25,5.25h-23.4v78c0,3.3-1.95,5.25-5.25,5.25h-8.85c-3.3,0-5.25-1.95-5.25-5.25Z"/>
      <path class="cls-1" d="M1336.78,216.16h-9c-3.3,0-5.25-1.95-5.25-5.25v-91.05c0-3.3,1.95-5.25,5.25-5.25h9c3.3,0,5.25,1.95,5.25,5.25v36h46.95v-36c0-3.3,1.95-5.25,5.25-5.25h9c3.3,0,5.25,1.95,5.25,5.25v91.05c0,3.3-1.95,5.25-5.25,5.25h-9c-3.3,0-5.25-1.95-5.25-5.25v-36.75h-46.95v36.75c0,3.3-1.95,5.25-5.25,5.25Z"/>
      <path class="cls-1" d="M1480.93,216.16h-51.45c-3.15,0-5.1-1.95-5.1-5.1v-91.35c0-3.15,1.95-5.1,5.1-5.1h53.55c3.3,0,5.25,1.95,5.25,5.25v7.8c0,3.3-1.95,5.25-5.25,5.25h-39.15v23.25h36.75c3.3,0,5.25,1.95,5.25,5.25v6.9c0,3.3-1.95,5.25-5.25,5.25h-36.75v24.3h40.95c3.75,0,5.55,2.1,4.5,5.85l-2.1,7.8c-.9,3.15-3,4.65-6.3,4.65Z"/>
      <path class="cls-1" d="M1502.23,210.91v-91.05c0-3.3,1.95-5.25,5.25-5.25h32.4c22.95,0,35.55,14.4,35.55,33.75,0,11.7-7.5,24.15-19.35,28.05l18.9,33.45c2.1,3.75.45,6.3-3.6,6.3h-10.2c-2.85,0-4.95-1.2-6.3-3.75l-23.55-42.6c-1.95-3.6-.3-6.3,3.75-6.3h4.05c10.8,0,16.8-6.75,16.8-15.15s-6.45-15.45-16.05-15.45h-18.15v78c0,3.3-1.95,5.25-5.25,5.25h-9c-3.3,0-5.25-1.95-5.25-5.25Z"/>
    </g>
  </g>
  <g>
    <path class="cls-2" d="M268.42,86.11l24.51-10.24c.96-1.07.29-4,.71-5.79.51-2.2,3.04-5.29,4.83-6.67,10.28-7.93,24.9.54,22.84,13.34-.2,1.26-1.81,4.19-1.66,4.91.15.68,7.08,7.82,8.02,8.46.42.29.49.7,1.25.49l20.36-33.93c.94-.26,2.8.32,3.09,1.27l-.58,2.78-19.72,33.14,23.87,23.53c1.89-.4,3.15-1.12,5.22-1.3,18.65-1.65,22.59,21.86,6.08,27.47l-.3,50.79c.23,2,2.43,1.67,3.62,2.38,14.17,8.46,5.44,31.16-11.62,25.62-1.43-.47-3.05-2.15-4.5-1.5l-25.98,26.59,23.83,29.49c-.02,3.46-3.01,3.2-4.88.96l-22.3-26.73-6.6,6.71c12.18,19.47-18.51,32.68-25.08,11.25h-25v7.25c0,.33,3.36,1.79,3.88,5.12,1.55,9.84-12.32,9.92-12.76,1.75-.26-4.74,3.68-5.37,4.16-7.08.36-1.28.7-6.55-.61-6.98l-21.35-.09c-4.21,16.71-28.96,13.52-28.36-3.73.09-2.6,2.25-5.62,1.27-7.74l-21.99-22-17.71,21.78-3.44.6-.87-2.86,18.21-23.17-10.77-10.29c-23.42,8.92-29.29-27.22-4.26-26.64l10.08-25.12-10.45-25.48c-.75-.68-3.97-.18-5.56-.56-3.59-.85-7.6-4.53-9.08-7.92-5.6-12.85,7.5-23.93,19.61-18.1l20.43-20.07c-8.7-11.59-18.59-22.34-27.95-33.42-1.75-2.11-.53-4.44,2.14-4.18l29.16,33.91c.59.13.85-.44,1.22-.72,1.23-.94,11.42-10.97,11.72-11.74.36-.97-1.08-3.42-1.24-4.76-1.68-13.52,13.1-21.67,23.28-12.78,5.48,4.79,5.06,10.83,3.59,17.38l11.87,11.1,10.66-4.09c.29-.23.41-.85.49-1.24.49-2.37.58-18.53.13-20.9-.35-1.83-4.45-2.09-4.21-7.32.42-9.58,14.36-7.22,13.01,1.08-.56,3.47-4.3,5.37-4.3,5.74v20.25ZM301.84,95.53c-1.31.82-4.63-.87-5.71-1.91.28-4.59,5.27-8.06-.93-10.96l-37.46,14.96-.32.99,25.24,24.52c.99.17.64-.2.87-.65.48-.95,3.32-8.02,3.38-8.67.17-1.87-1.09-2.22-1.4-3.55-3.03-12.89,16.73-14.72,15.4-1.4-.45,4.53-3.78,6.17-7.75,7.25l-5.11,12.25,18.98,19.61,1.57.12,21.76-9.32-20.53-50.08-4.92-.36-3.07,7.19ZM240.23,90.3c-.9-.87-3.54-3.62-4.58-3.72-3.51,1.63-6.75,2.3-10.65,2.11-.53,2.4-7.32,17.1-6.57,17.92l25.98-10.76.51-1.23c-2.15-.46-3.3-2.97-4.69-4.32ZM187.42,119.11l21.54-8.71.84-1.16,8.61-21.13-30.99,31ZM322.83,100.52c.21-.12,2.31-3.75,1.86-4.39l-7.27-7.01,4,11.5c.45-.04.99.14,1.4-.1ZM330.23,101.32l-2.28-1.19-3.32,7,12.63,28.94,11.71-4.66,1.89-9.43-20.62-20.65ZM237.54,182.5c-.9-.89-1.06-4.48.4-5.12l26.71-11.29,15.27-35.74-29.31-29.63-36.55,15.03-17.98,43.7c.44,4.09,10.61,20.33,10.27,22.8-.28,1.99-2.69,2.56-4.16,1.36l-8.24-17.26-1.03.06-1.47,3.48,8.96,22.51c3.48.28,14.47-7.71,16.66-3.18.79,1.63.59,3.28-.87,4.4-2.78,2.11-9.36,3.49-12.73,5.02l3.96,10.74c.66.65.81.1,1.24-.29,1.48-1.36,2.25-4.84,5.29-3.76l27.25,16.77,19.73-46.24c-.86-1.16-.72-.42-1.24-.26-5.03,1.55-14.35,7.28-18.73,7.8-.83.1-2.9-.4-3.4-.9ZM192.41,151.11l12.95-30.82-.69-1.17-19.17,8.32c.5,2.9-1,7.23-.47,9.8.27,1.31,5.34,11.8,6.27,13.22.31.48-.06.9,1.11.64ZM293.21,143.33c-1.89-1.96-5.01-5.83-7.03-7.22-.42-.29-.49-.7-1.25-.49l-11,26.5,26.5-10.5c.21-.76-.2-.83-.49-1.25-1.33-1.94-4.89-5.14-6.72-7.03ZM346.41,157.11l6.77-16.45-1.62-2.49-11.64,4.46c-.44.59,4.69,12.29,5.45,13.77.21.4.12,1.49,1.04.71ZM186.92,160.61c.72.71,3.07-2.69,2.42-3.62l-7-15.06-1.67-1.32c-1.09.75-.75,1.48-.55,2.52.7,3.62,4.6,10.97,6.18,14.83.34.84.59,1.72.61,2.64ZM360.42,189.36v-45c0-2.75-2.68,2.28-2.85,2.65-2.85,6.12-5.07,12.64-7.62,18.9l9.47,23.96,1-.51ZM333.87,145.67c-.43-.38-2.09.22-2.73.42-3.75,1.18-13.22,5.05-16.58,6.92-.5.28-1.29.56-1.12,1.32l40.47,40.28-7.5-19.5c-8.99,3.58-6.42-3.75-4.25-9.06l-8.29-20.39ZM307.26,157.29l-1.18-.57-35.76,14.41-1.89,3.75,22.21,27.27c2.62,1.13,4.28-.87,7.41-.42,8.74,1.26,12.65,11.18,7.36,18.12-8.49,11.14-25.31-1.91-17.72-13.2l-.13-.89-20.38-24.66-1.25-.49-22.28,53c-.6,2.68,2.32,4.66-.3,8.17-4.48,6-15.26-.25-10.43-7.43,1.35-2,3.55-1.81,4.72-3.28.68-.85,2-3.93,1.55-4.95l-25.24-15.82-4.29,4.29,15.26,37.27c5.61,2.17,3.54-3.97,8.43-2.42,4,1.27,1.51,3.41,2.53,4.94.29.44,3.11,2.58,3.56,2.51l23.76-9.76-.02-6.04c-1.19-1.11-4.63-2.02-5.04-3.45s-.46-2.88,1.27-3.33c2.25-.59,12.25,7.32,15.18,8.19l44.33-18.8c1.57-3.6,10.94-29.81,12.38-30.61,3.32-1.83,5.53.68,5.08,4.2-.57,4.49-6.48,15.56-8.34,20.66-.31.85-.71,1.69-.61,2.63l21.77-8.98c.48-1.69.1-3.41.36-5.14s1.81-3.89,1.13-5.37l-43.42-43.84ZM186.92,179.61l-6.93,17.38c-.57.84,2.29,2.92,2.74,3.01.7.14,11.45-4.43,11.53-5.13-2.28-4.13-3.28-9.9-5.46-13.9-.41-.75-.88-1.52-1.88-1.36ZM185.51,206.2c-.33,2.16.19,4.4-.2,6.55-.28,1.55-2.12,3.35-1.82,4.51.18.69,9.48,10.02,10.17,9.85,1.41-2.45,8.76-9.51,8.8-11.73l-5.51-13.56-11.44,4.36ZM345.42,220.62c-7.53,2.09-14.49,6.03-21.88,8.61-2.59,7.64-5.94,14.98-9.11,22.38l31-30.99ZM205.42,221.11l-1.51.24-6.76,8.27-.18,1.14,19.94,19.85-11.5-29.5ZM314.92,233.12c-10.28,4-20.68,7.98-30.76,12.49-.53.24-2.59.99-2.24,1.76l14.33,9.19c3.38-2.52,6.39-4.6,10.83-4.51l7.83-18.92ZM268.42,262.61h25l.45-2.96c-3.44-.66-15.83-10.5-18.12-10.42-.97.03-7.28,2.67-7.62,3.37-.09,3.35.07,6.58.28,10ZM263.42,254.11l-20,8.5h20v-8.5Z"/>
    <path class="cls-2" d="M169.67,160.57c-3.88-.09-5.48,1.94-6.76,5.28l-11.69,3.58c-.13.16-.26.32-.38.49-.06.14-.12.27-.19.41-.06.21-.15.5-.17.59,0,0,0,0,0,0-.01.32-.03.64-.01.96,0,.01,0,.02,0,.03.05.26.12.51.17.77.07.19.19.45.24.57.25.14.49.31.72.5.25.07.49.14.74.21,3.29-1.02,6.59-1.98,9.91-2.81,2.29-.65,3.5,1.62,5.46,1.94,10.01,1.63,11.02-12.29,1.97-12.51Z"/>
    <path class="cls-2" d="M376.79,171.73c7.16-1.13,10.47,7.96,4.6,11.61-8.63,5.37-13.98-10.13-4.6-11.61Z"/>
    <path class="cls-2" d="M244.07,153.96c-1.78-1.5-5.54-8.28-7.15-9.14-5.26,1.66-11.44,1.25-14.73-3.73-6.24-9.48,3.48-21.01,14.07-16.07,3.41,1.59,6.16,6.12,6.16,9.84,0,2.02-2.13,5.82-1.91,6.88.43,2.09,7.11,7.34,7.42,9.15.43,2.47-1.97,4.66-3.85,3.07Z"/>
    <path class="cls-2" d="M224.56,188.46c-2.84-2.29-.19-7.41,3.21-5.98,4.93,2.08.92,9.31-3.21,5.98Z"/>
  </g>
</svg>